<svg width="23" height="24" viewBox="0 0 23 24" fill="none" xmlns="http://www.w3.org/2000/svg">
<path fill-rule="evenodd" clip-rule="evenodd" d="M9.75978 16.2663C13.3532 16.2663 16.2663 13.3532 16.2663 9.75978C16.2663 6.16633 13.3532 3.25326 9.75978 3.25326C6.16633 3.25326 3.25326 6.16633 3.25326 9.75978C3.25326 13.3532 6.16633 16.2663 9.75978 16.2663ZM9.75978 19.5196C15.15 19.5196 19.5196 15.15 19.5196 9.75978C19.5196 4.3696 15.15 0 9.75978 0C4.3696 0 0 4.3696 0 9.75978C0 15.15 4.3696 19.5196 9.75978 19.5196Z" fill="#803EB2"/>
<path fill-rule="evenodd" clip-rule="evenodd" d="M20.6205 24L12.9525 16.332L15.2529 14.0316L22.9209 21.6996L20.6205 24Z" fill="#803EB2"/>
</svg>
